<mxfile host="app.diagrams.net" modified="2023-11-29T14:19:01.973Z" agent="Mozilla/5.0 (Windows NT 10.0; Win64; x64) AppleWebKit/537.36 (KHTML, like Gecko) Chrome/119.0.0.0 Safari/537.36 Edg/119.0.0.0" version="21.3.8" etag="-SBfUTsT1kvAXaXaNO5j" type="github">
  <diagram name="第 1 页" id="7z6G4Y9FoquP1UqmYhu6">
    <mxGraphModel>
      <root>
        <mxCell id="0" />
        <mxCell id="1" parent="0" />
      </root>
    </mxGraphModel>
  </diagram>
</mxfile>
